<?xml version="1.0" encoding="UTF-8" standalone="no"?>
<svg
   width="96"
   height="96"
   viewBox="0 0 24 24"
   version="1.1"
   id="svg1"
   sodipodi:docname="custom_battery_charging.svg"
   inkscape:version="1.4.3 (0d15f75, 2025-12-25)"
   xmlns:inkscape="http://www.inkscape.org/namespaces/inkscape"
   xmlns:sodipodi="http://sodipodi.sourceforge.net/DTD/sodipodi-0.dtd"
   xmlns="http://www.w3.org/2000/svg"
   xmlns:svg="http://www.w3.org/2000/svg">
  <defs
     id="defs1" />
  <sodipodi:namedview
     id="namedview1"
     pagecolor="#ffffff"
     bordercolor="#000000"
     borderopacity="0.25"
     inkscape:showpageshadow="2"
     inkscape:pageopacity="0.0"
     inkscape:pagecheckerboard="0"
     inkscape:deskcolor="#d1d1d1"
     inkscape:zoom="2.2937449"
     inkscape:cx="25.940112"
     inkscape:cy="175.69521"
     inkscape:window-width="1800"
     inkscape:window-height="1101"
     inkscape:window-x="0"
     inkscape:window-y="40"
     inkscape:window-maximized="0"
     inkscape:current-layer="svg1" />
  <path
     fill="#000000"
     d="M 9 2 L 9 4 L 7.3300781 4 A 1.33 1.33 0 0 0 6 5.3300781 L 6 20.669922 C 6 21.399922 6.6000781 22 7.3300781 22 L 16.669922 22 C 17.399922 22 18 21.399922 18 20.669922 L 18 5.3300781 A 1.33 1.33 0 0 0 16.669922 4 L 15 4 L 15 2 L 9 2 z M 12.482422 8.1591797 L 12.482422 11.535645 L 13.929199 11.535645 L 11.517578 16.84082 L 11.517578 12.982422 L 10.070801 12.982422 L 12.482422 8.1591797 z " 
     stroke-width="0.1"
     stroke="#000000"
     id="path2" />
</svg>
