<?xml version="1.0" encoding="UTF-8" standalone="no"?>
<svg
   width="33"
   height="33"
   viewBox="0 0 33 33"
   version="1.1"
   id="svg14"
   sodipodi:docname="custom_message.svg"
   inkscape:version="1.4.3 (0d15f75, 2025-12-25)"
   xmlns:inkscape="http://www.inkscape.org/namespaces/inkscape"
   xmlns:sodipodi="http://sodipodi.sourceforge.net/DTD/sodipodi-0.dtd"
   xmlns="http://www.w3.org/2000/svg"
   xmlns:svg="http://www.w3.org/2000/svg">
  <defs
     id="defs14" />
  <sodipodi:namedview
     id="namedview14"
     pagecolor="#ffffff"
     bordercolor="#000000"
     borderopacity="0.25"
     inkscape:showpageshadow="2"
     inkscape:pageopacity="0.0"
     inkscape:pagecheckerboard="0"
     inkscape:deskcolor="#d1d1d1"
     inkscape:zoom="1.7228431"
     inkscape:cx="121.02089"
     inkscape:cy="25.539181"
     inkscape:window-width="1800"
     inkscape:window-height="1101"
     inkscape:window-x="0"
     inkscape:window-y="40"
     inkscape:window-maximized="0"
     inkscape:current-layer="svg14" />
  <g
     id="g14"
     transform="translate(1.6454873,2.9346937)">
    <path
       d="M 26.801022,15.324775 V 6.5332026 c 0,0 0.0096,0.00405 1.716679,0.019002 l 0.03841,8.7685894 -1.755082,0.01349 0.007,1.745266 -1.660746,0.0033 -0.02778,1.794555 -3.434084,3.73e-4 -0.0095,1.690196 -5.130007,0.0294 h -5.127564 v -1.753699 h 10.255161 v -1.765237 h 3.422139 v -1.7537 z"
       fill="#3f8f8a"
       stroke="#000000"
       stroke-width="0.5"
       id="path1" />
    <path
       d="m 26.801022,4.7679656 h -1.705459 v 1.765237 h 1.705459 z"
       fill="#3f8f8a"
       stroke="#000000"
       stroke-width="0.5"
       id="path2" />
    <path
       d="m 23.378883,10.052139 h -3.410918 v 3.507399 h 3.410918 z"
       fill="#3f8f8a"
       stroke="#000000"
       stroke-width="0.5"
       id="path3" />
    <path
       d="m 25.095563,3.0142662 h -3.422139 v 1.7536994 h 3.422139 z"
       fill="#3f8f8a"
       stroke="#000000"
       stroke-width="0.5"
       id="path4" />
    <path
       d="m 16.545939,10.052139 h -3.422138 v 3.507399 h 3.422138 z"
       fill="#3f8f8a"
       stroke="#000000"
       stroke-width="0.5"
       id="path5" />
    <path
       d="M 11.418229,20.597411 H 9.7015499 v 1.753699 h 1.7166791 z"
       fill="#3f8f8a"
       stroke="#000000"
       stroke-width="0.5"
       id="path6" />
    <path
       d="M 21.673424,1.2605667 H 7.9960796 V 3.0142662 H 21.673424 Z"
       fill="#3f8f8a"
       stroke="#000000"
       stroke-width="0.5"
       id="path7" />
    <path
       d="M 7.9960571,18.843711 H 6.290598 v 7.026335 H 7.9960571 V 24.116347 H 9.7015163 V 22.35111 H 7.9960571 Z"
       fill="#3f8f8a"
       stroke="#000000"
       stroke-width="0.5"
       id="path8" />
    <path
       d="M 9.7015163,10.052139 H 6.290598 v 3.507399 h 3.4109183 z"
       fill="#3f8f8a"
       stroke="#000000"
       stroke-width="0.5"
       id="path9" />
    <path
       d="M 7.9961581,3.0142662 H 4.5740198 v 1.7536994 h 3.4221383 z"
       fill="#3f8f8a"
       stroke="#000000"
       stroke-width="0.5"
       id="path10" />
    <path
       d="M 6.290699,17.078474 H 4.5740198 v 1.765237 H 6.290699 Z"
       fill="#3f8f8a"
       stroke="#000000"
       stroke-width="0.5"
       id="path11" />
    <path
       d="M 4.5739973,15.324775 H 2.8685382 v 1.753699 h 1.7054591 z"
       fill="#3f8f8a"
       stroke="#000000"
       stroke-width="0.5"
       id="path12" />
    <path
       d="M 4.5739973,4.7679656 H 2.8685382 v 1.765237 h 1.7054591 z"
       fill="#3f8f8a"
       stroke="#000000"
       stroke-width="0.5"
       id="path13" />
    <path
       d="M 2.8685045,6.5332026 H 1.1518253 v 8.7915724 h 1.7166792 z"
       fill="#3f8f8a"
       stroke="#000000"
       stroke-width="0.5"
       id="path14" />
  </g>
</svg>
