<?xml version="1.0" encoding="UTF-8" standalone="no"?>
<svg
   width="33"
   height="33"
   viewBox="0 0 33 33"
   version="1.1"
   id="svg24"
   sodipodi:docname="custom_goal.svg"
   inkscape:version="1.4.3 (0d15f75, 2025-12-25)"
   xmlns:inkscape="http://www.inkscape.org/namespaces/inkscape"
   xmlns:sodipodi="http://sodipodi.sourceforge.net/DTD/sodipodi-0.dtd"
   xmlns="http://www.w3.org/2000/svg"
   xmlns:svg="http://www.w3.org/2000/svg">
  <defs
     id="defs24" />
  <sodipodi:namedview
     id="namedview24"
     pagecolor="#ffffff"
     bordercolor="#000000"
     borderopacity="0.25"
     inkscape:showpageshadow="2"
     inkscape:pageopacity="0.0"
     inkscape:pagecheckerboard="0"
     inkscape:deskcolor="#d1d1d1"
     inkscape:zoom="3.4948886"
     inkscape:cx="23.892035"
     inkscape:cy="21.746044"
     inkscape:window-width="1800"
     inkscape:window-height="1101"
     inkscape:window-x="0"
     inkscape:window-y="40"
     inkscape:window-maximized="0"
     inkscape:current-layer="svg24" />
  <g
     id="g24"
     transform="translate(0.5,0.43340745)">
    <path
       d="m 32,12.19 h -1.53 v 4.57 H 32 Z"
       fill="#c89a2b"
       stroke="#000000"
       stroke-width="0.5"
       id="path1" />
    <path
       d="m 30.47,16.76 h -1.52 v 3.05 h 1.52 z"
       fill="#c89a2b"
       stroke="#000000"
       stroke-width="0.5"
       id="path2" />
    <path
       d="m 30.47,10.67 h -3.05 v 1.52 h 3.05 z"
       fill="#c89a2b"
       stroke="#000000"
       stroke-width="0.5"
       id="path3" />
    <path
       d="m 28.95,19.81 h -1.53 v 1.52 h 1.53 z"
       fill="#c89a2b"
       stroke="#000000"
       stroke-width="0.5"
       id="path4" />
    <path
       d="M 27.42,28.95 H 25.9 v 1.53 h 1.52 z"
       fill="#c89a2b"
       stroke="#000000"
       stroke-width="0.5"
       id="path5" />
    <path
       d="m 25.9,13.71 h 1.52 V 12.19 H 25.9 v -1.52 h -1.52 v 12.19 h 3.04 V 21.33 H 25.9 Z"
       fill="#c89a2b"
       stroke="#000000"
       stroke-width="0.5"
       id="path6" />
    <path
       d="M 25.9,30.48 H 1.52 V 32 H 25.9 Z"
       fill="#c89a2b"
       stroke="#000000"
       stroke-width="0.5"
       id="path7" />
    <path
       d="m 24.38,22.86 h -1.53 v 3.05 h 1.53 z"
       fill="#c89a2b"
       stroke="#000000"
       stroke-width="0.5"
       id="path8" />
    <path
       d="M 21.33,27.43 H 6.09 V 25.91 H 4.57 v 1.52 H 1.52 v 1.52 H 25.9 v -1.52 h -3.05 v -1.52 h -1.52 z"
       fill="#c89a2b"
       stroke="#000000"
       stroke-width="0.5"
       id="path9" />
    <path
       d="m 16.014514,4.8023867 h -1.53 v 1.53 h 1.53 z"
       fill="#c89a2b"
       stroke="#000000"
       stroke-width="0.5"
       id="path10" />
    <path
       d="m 14.484514,6.3323567 h -1.52 v 1.52 h 1.52 z"
       fill="#c89a2b"
       stroke="#000000"
       stroke-width="0.5"
       id="path11" />
    <path
       d="m 14.484514,3.2823667 h -1.52 v 1.52 h 1.52 z"
       fill="#c89a2b"
       stroke="#000000"
       stroke-width="0.5"
       id="path12" />
    <path
       d="m 14.484514,0.23237672 h -1.52 V 1.7523767 h 1.52 z"
       fill="#c89a2b"
       stroke="#000000"
       stroke-width="0.5"
       id="path13" />
    <path
       d="m 12.964514,1.7523967 h -1.53 v 1.53 h 1.53 z"
       fill="#c89a2b"
       stroke="#000000"
       stroke-width="0.5"
       id="path14" />
    <path
       d="m 9.9145136,4.8023867 h -1.52 v 1.53 h 1.52 z"
       fill="#c89a2b"
       stroke="#000000"
       stroke-width="0.5"
       id="path15" />
    <path
       d="m 8.3945136,6.3323567 h -1.53 v 1.52 h 1.53 z"
       fill="#c89a2b"
       stroke="#000000"
       stroke-width="0.5"
       id="path16" />
    <path
       d="m 8.3945136,3.2823667 h -1.53 v 1.52 h 1.53 z"
       fill="#c89a2b"
       stroke="#000000"
       stroke-width="0.5"
       id="path17" />
    <path
       d="m 8.3945136,0.23237672 h -1.53 V 1.7523767 h 1.53 z"
       fill="#c89a2b"
       stroke="#000000"
       stroke-width="0.5"
       id="path18" />
    <path
       d="m 6.8645136,1.7523967 h -1.52 v 1.53 h 1.52 z"
       fill="#c89a2b"
       stroke="#000000"
       stroke-width="0.5"
       id="path19" />
    <path
       d="M 7.61,10.67 H 9.14 24.38 V 9.14001 H 3.04 V 10.67 Z"
       fill="#c89a2b"
       stroke="#000000"
       stroke-width="0.5"
       id="path20" />
    <path
       d="M 4.57,22.86 H 3.04 v 3.05 h 1.53 z"
       fill="#c89a2b"
       stroke="#000000"
       stroke-width="0.5"
       id="path21" />
    <path
       d="M 3.04,10.67 H 1.52 v 12.19 h 1.52 z"
       fill="#c89a2b"
       stroke="#000000"
       stroke-width="0.5"
       id="path22" />
    <path
       d="M 1.52,28.95 H 0 v 1.53 h 1.52 z"
       fill="#c89a2b"
       stroke="#000000"
       stroke-width="0.5"
       id="path23" />
    <path
       d="m 21.76124,4.7031951 h -1.53 v 1.53 h 1.53 z m -1.53,1.52997 h -1.52 v 1.52 h 1.52 z m 0,-3.04999 h -1.52 v 1.52 h 1.52 z m 0,-3.04998999 h -1.52 V 1.6531851 h 1.52 z m -1.52,1.52001999 h -1.53 v 1.53 h 1.53 z"
       fill="#c89a2b"
       stroke="#000000"
       stroke-width="0.5"
       id="path24" />
  </g>
</svg>
