<?xml version="1.0" encoding="UTF-8" standalone="no"?>
<svg
   width="33"
   height="33"
   viewBox="0 0 33 33"
   version="1.1"
   id="svg24"
   sodipodi:docname="custom_book.svg"
   inkscape:version="1.4.3 (0d15f75, 2025-12-25)"
   xmlns:inkscape="http://www.inkscape.org/namespaces/inkscape"
   xmlns:sodipodi="http://sodipodi.sourceforge.net/DTD/sodipodi-0.dtd"
   xmlns="http://www.w3.org/2000/svg"
   xmlns:svg="http://www.w3.org/2000/svg">
  <defs
     id="defs24" />
  <sodipodi:namedview
     id="namedview24"
     pagecolor="#ffffff"
     bordercolor="#000000"
     borderopacity="0.25"
     inkscape:showpageshadow="2"
     inkscape:pageopacity="0.0"
     inkscape:pagecheckerboard="0"
     inkscape:deskcolor="#d1d1d1"
     inkscape:zoom="4.3090621"
     inkscape:cx="28.42846"
     inkscape:cy="4.6413812"
     inkscape:window-width="1800"
     inkscape:window-height="1101"
     inkscape:window-x="0"
     inkscape:window-y="40"
     inkscape:window-maximized="0"
     inkscape:current-layer="svg24" />
  <g
     id="g24"
     transform="translate(0.49999,0.5)">
    <path
       d="m 30.48,8.38 h -1.53 v 18.29 h 1.53 z"
       fill="#3c5f8f"
       stroke="#000000"
       stroke-width="0.5"
       id="path1" />
    <path
       d="m 28.95,26.67 h -3.04 v 1.52 h 3.04 z"
       fill="#3c5f8f"
       stroke="#000000"
       stroke-width="0.5"
       id="path2" />
    <path
       d="m 25.91,25.14 h -3.05 v 1.53 h 3.05 z"
       fill="#3c5f8f"
       stroke="#000000"
       stroke-width="0.5"
       id="path3" />
    <path
       d="m 22.86,23.62 h -4.57 v 1.52 h 4.57 z"
       fill="#3c5f8f"
       stroke="#000000"
       stroke-width="0.5"
       id="path4" />
    <path
       d="m 24.38,16 h -4.57 v 1.52 h 4.57 z"
       fill="#3c5f8f"
       stroke="#000000"
       stroke-width="0.5"
       id="path5" />
    <path
       d="m 24.38,11.43 h -4.57 v 1.52 h 4.57 z"
       fill="#3c5f8f"
       stroke="#000000"
       stroke-width="0.5"
       id="path6" />
    <path
       d="m 24.38,6.85999 h -4.57 v 1.52 h 4.57 z"
       fill="#3c5f8f"
       stroke="#000000"
       stroke-width="0.5"
       id="path7" />
    <path
       d="m 25.91,3.81 h -7.62 v 1.52 h 7.62 z"
       fill="#3c5f8f"
       stroke="#000000"
       stroke-width="0.5"
       id="path8" />
    <path
       d="m 19.81,12.95 h -1.52 v 1.53 h 1.52 z"
       fill="#3c5f8f"
       stroke="#000000"
       stroke-width="0.5"
       id="path9" />
    <path
       d="m 19.81,8.38 h -1.52 v 1.53 h 1.52 z"
       fill="#3c5f8f"
       stroke="#000000"
       stroke-width="0.5"
       id="path10" />
    <path
       d="m 18.29,5.32999 h -1.53 v 1.53 h 1.53 z"
       fill="#3c5f8f"
       stroke="#000000"
       stroke-width="0.5"
       id="path11" />
    <path
       d="m 18.29,25.14 h -4.57 v 1.53 h 4.57 z"
       fill="#3c5f8f"
       stroke="#000000"
       stroke-width="0.5"
       id="path12" />
    <path
       d="m 15.24,5.32999 h -1.52 v 1.53 h 1.52 z"
       fill="#3c5f8f"
       stroke="#000000"
       stroke-width="0.5"
       id="path13" />
    <path
       d="M 13.72,23.62 H 9.14001 v 1.52 H 13.72 Z"
       fill="#3c5f8f"
       stroke="#000000"
       stroke-width="0.5"
       id="path14" />
    <path
       d="m 13.72,12.95 h -1.53 v 1.53 h 1.53 z"
       fill="#3c5f8f"
       stroke="#000000"
       stroke-width="0.5"
       id="path15" />
    <path
       d="m 13.72,8.38 h -1.53 v 1.53 h 1.53 z"
       fill="#3c5f8f"
       stroke="#000000"
       stroke-width="0.5"
       id="path16" />
    <path
       d="M 12.19,16 H 7.62 v 1.52 h 4.57 z"
       fill="#3c5f8f"
       stroke="#000000"
       stroke-width="0.5"
       id="path17" />
    <path
       d="M 12.19,11.43 H 7.62 v 1.52 h 4.57 z"
       fill="#3c5f8f"
       stroke="#000000"
       stroke-width="0.5"
       id="path18" />
    <path
       d="M 12.19,6.85999 H 7.62 v 1.52 h 4.57 z"
       fill="#3c5f8f"
       stroke="#000000"
       stroke-width="0.5"
       id="path19" />
    <path
       d="M 13.72,3.81 H 6.10004 V 5.33 H 13.72 Z"
       fill="#3c5f8f"
       stroke="#000000"
       stroke-width="0.5"
       id="path20" />
    <path
       d="m 9.14004,25.14 h -3.04 v 1.53 h 3.04 z"
       fill="#3c5f8f"
       stroke="#000000"
       stroke-width="0.5"
       id="path21" />
    <path
       d="M 13.72,20.57 V 19.05 H 9.14005 v 1.52 h -3.04 V 5.32999 h -1.53 v 1.53 h -1.52 v 1.52 h 1.52 V 23.62 h 4.57 V 22.1 H 13.72 v 1.52 h 4.57 V 22.1 h 4.5701 v 1.52 H 27.43 V 8.37999 h 1.5201 v -1.52 H 27.43 v -1.53 H 25.91 V 20.57 H 22.8601 V 19.05 H 18.29 v 1.52 H 16.76 V 6.85999 H 15.24 V 20.57 Z"
       fill="#3c5f8f"
       stroke="#000000"
       stroke-width="0.5"
       id="path22" />
    <path
       d="m 6.10005,26.67 h -3.05 v 1.52 h 3.05 z"
       fill="#3c5f8f"
       stroke="#000000"
       stroke-width="0.5"
       id="path23" />
    <path
       d="m 3.05002,8.38 h -1.53 v 18.29 h 1.53 z"
       fill="#3c5f8f"
       stroke="#000000"
       stroke-width="0.5"
       id="path24" />
  </g>
</svg>
