<svg
   width="137.21318"
   height="172.93629"
   viewBox="0 0 137.21318 172.93629"
   xmlns="http://www.w3.org/2000/svg">
  <g
     transform="translate(1.7209669,4.7228203)">
    <path
       d="m 90.956768,-2.7202402 c -1.286997,-0.025041 -2.926541,0.1686898 -4.853516,0.2148437 -6.1944,0.146424 -12.401644,-0.091857 -18.589844,0.1542969 -8.2415,0.3310786 -16.082547,-0.6626131 -24.310547,-0.064453 -4.0988,0.29846 -3.5342,2.68414198 -3.316406,6.59375 -0.136756,5.4636528 1.156504,9.5901686 -1.3125,9.6054686 -6.040173,0.03743 -15.613534,0.660313 -18.021484,0.820313 -9.4259,0.62277 -15.5649816,4.286387 -18.0507816,13.117187 -1.65142993,5.8695 -1.371314,12.874716 -1.54687497,18.916016 -0.52917701,18.2147 -0.38210613,36.447332 -0.48632813,54.673828 -0.078167,13.72491 -0.18945312,27.45278 -0.18945312,41.17578 -6.2001e-4,12.195 6.70848872,20.37131 18.66796882,22.82031 2.4162,0.554 4.883681,0.85925 7.363281,0.90625 24.6721,-0.159 49.340066,-0.58084 74.009767,-0.58984 17.762,-0.006 29.54698,-15.02719 30.70898,-27.11719 0.587,-6.109 1.0893,-12.23714 1.2793,-18.36914 0.519,-16.78651 1.11469,-33.577739 1.17969,-50.369139 0.048,-12.269799 -0.31427,-24.569741 -1.19727,-36.806641 -0.903,-12.533 -7.001,-19.360472 -19.625,-19.570312 -2.2615,-0.03692 -17.460179,0.581124 -17.720701,-1.089844 C 94.314778,8.2587246 94.635706,7.0700957 94.126689,0.92038475 94.264651,-2.0297545 93.101761,-2.6785058 90.956768,-2.7202402 Z M 78.439189,43.379369 c 0.969812,-0.02508 1.939921,0.02267 2.902344,0.142578 0.363958,0.03623 0.727942,0.07363 1.091797,0.101563 0.298736,0.0049 0.593062,0.07142 0.863281,0.195312 0.269762,0.123913 0.509858,0.30259 0.703125,0.523438 0.183186,0.254046 0.307798,0.541389 0.369141,0.845703 0.06134,0.304314 0.05578,0.617638 -0.01563,0.919922 -0.227096,1.353244 -0.559314,2.687491 -0.994141,3.992187 -1.513124,4.520528 -3.074177,9.110391 -4.582031,13.548828 -0.770155,2.262353 -1.538301,4.524001 -2.304687,6.78711 -0.163989,0.481599 -0.308506,0.977486 -0.47461,1.550781 -0.04328,0.148213 -0.08766,0.302594 -0.134765,0.462891 l 0.458984,-0.02539 c 0.616213,-0.03506 1.149777,-0.06661 1.689453,-0.08008 2.022533,-0.05031 4.045351,-0.0986 6.068359,-0.146485 2.92513,-0.06705 5.850136,-0.140194 8.775391,-0.21875 1.414295,-0.03754 2.828815,0.135416 3.585938,1.640625 0.776445,1.544577 0.04773,2.810618 -0.855469,3.949219 l -1.84961,2.330078 c -2.933914,3.700503 -5.967327,7.526838 -8.966796,11.279297 -1.855178,2.329866 -3.708463,4.663683 -5.556641,7 -4.645093,5.872944 -9.446753,11.946684 -14.369141,17.765624 -2.838368,3.35568 -6.013693,6.52606 -9.082031,9.59375 -1.375538,1.37395 -2.794798,2.79693 -4.167969,4.21485 -0.721648,0.74786 -1.566619,1.44254 -2.578125,1.49414 -0.550502,0.0158 -1.09322,-0.13063 -1.554687,-0.42188 -1.673169,-0.97788 -1.365002,-2.51548 -0.945313,-3.88086 0.741725,-2.40484 1.486286,-4.80987 2.230469,-7.21484 1.98964,-6.43119 4.045627,-13.0812 5.992188,-19.64258 0.614138,-2.06826 1.056848,-4.159835 1.523437,-6.373048 0.183824,-0.866154 0.369606,-1.75664 0.570313,-2.654296 l -1.822266,-0.01367 c -1.590246,-0.01187 -3.094212,-0.02389 -4.597656,-0.02539 -1.795373,7.17e-4 -3.589209,0.004 -5.384766,0.0098 l -2.802734,0.0078 c -2.289571,0.0051 -3.60096,-0.393709 -4.261719,-1.310547 -0.660756,-0.916781 -0.598277,-2.261335 0.199219,-4.361328 0.582205,-1.536021 1.238295,-3.07336 1.873047,-4.558594 0.560159,-1.310362 1.137721,-2.665339 1.662109,-4.011718 2.69926,-6.919296 5.41691,-13.96527 8.044922,-20.779297 l 2.509765,-6.494141 c 0.130134,-0.337176 0.237979,-0.693254 0.335938,-1.027344 0.968586,-3.292793 1.426792,-3.653626 4.902344,-3.859375 2.559182,-0.154077 5.118772,-0.310592 7.677734,-0.46875 4.338187,-0.268146 8.825105,-0.545545 13.240234,-0.785156 z"
       fill="#06b0ff"
       stroke="#000000"
       stroke-width="4"/>
    <g
       transform="matrix(0.19061999,-0.00972333,0.00998998,0.18553208,364.87042,53.526158)"/>
  </g>
</svg>
