<svg
   width="160.25856"
   height="132.77145"
   xmlns="http://www.w3.org/2000/svg">
  <path
     d="m 111.84489,109.85997 c -13.427797,15.983 -31.731797,21.345 -52.301397,20.885 -9.7978,-0.219 -19.2872,-2.174 -28.1897,-6.465 -8.6355,-4.147 -15.7629,-10.883 -20.3898,-19.271 C 3.0150831,91.007764 0.18888314,76.085964 3.1292831,60.189464 c 0.52835,-2.8551 1.35665,-5.2087 4.3508605,-7.1134 8.9183494,-5.6721 18.8204494,-8.2278 28.9445494,-9.7742 17.534,-2.6785 35.2368,-3.5042 52.9041,-1.5411 8.8605,1.0942 17.656097,2.6637 26.348097,4.7014 6.899,1.5306 7.187,2.2644 8.326,8.8501 2.526,-0.9523 4.988,-2.1876 7.59,-2.8039 8.038,-1.9034 16.146,1.4696 21.081,8.6322 8.341,12.1081 8.926,34.037 -9.373,46.551406 -6.965,4.763 -14.535,7.7 -23.131,5.66 -2.762,-0.654 -5.31,-2.197 -8.325,-3.492 z m -98.056697,-52.131006 0.1588,1.0658 c 2.653,0.4483 5.2934,1.1906 7.9595,1.2963 18.214,0.722 36.4267,1.6015 54.6512,1.8259 9.6909,0.1188 19.4329,-0.7364 28.828197,-3.5771 1.869,-0.5745 3.661,-1.3748 5.336,-2.3831 0.369,-0.2768 0.665,-0.6378 0.866,-1.0527 0.2,-0.4149 0.298,-0.8718 0.286,-1.3325 -0.161,-0.4248 -0.416,-0.8073 -0.747,-1.1186 -0.331,-0.3113 -0.728,-0.543 -1.162,-0.6777 -2.822,-0.8021 -5.683,-1.6967 -8.5818,-1.952 -8.799497,-0.7764 -17.615497,-1.4655 -26.439897,-1.8331 -17.3418,-0.722 -34.4729,0.7476 -51.1288,5.9556 -3.4057,1.0639 -6.6881,2.5118 -10.0262,3.7832 z m 106.211697,37.612 c 11.12,1.4649 20.482,-10.0006 16.743,-20.8453 -1.541,-4.4684 -8.573,-6.5069 -12.077,-3.4274 -0.572,0.623 -0.934,1.4097 -1.034,2.2493 -1.237,7.2676 -2.408,14.5464 -3.632,22.0234 z"
     fill="#e5b65c"
     stroke="#000000"
     stroke-width="4"/>
  <path
     d="m 76.212687,25.614173 c -0.1385,3.9381 -1.0817,6.9881 -3.5817,9.1441 -0.5834,0.4211 -1.2442,0.7229 -1.9445,0.8882 -0.7003,0.1654 -1.4264,0.1909 -2.1366,0.0753 -1.8981,-0.3538 -2.0202,-2.3555 -1.505,-3.7496 1.8089,-4.8989 0.831,-9.4651 -0.483,-14.3253 -1.291,-4.7748 0.3144,-9.4794688 2.9581,-13.6905288 0.9845,-1.564709 2.3838,-2.410715 4.1349,-1.528597 1.6789,0.844047 1.7065,2.510497 1.0206,3.995797 -2.2538,4.8995588 -2.0576,9.6304288 0.3413,14.4525288 0.8027,1.6074 0.915,3.5567 1.1959,4.7381 z"
     fill="#e5b65c"
     stroke="#000000"
     stroke-width="4"/>
  <path
     d="m 35.402087,35.930873 c 0.0565,-0.4628 0.1923,-0.9124 0.4017,-1.3291 2.2887,-3.3742 1.333,-6.5634 -0.2697,-9.8746 -3.2561,-6.7288 -2.2775,-12.88784 2.7494,-18.3912288 0.5835,-0.63927 1.2109,-1.51611 1.9493,-1.67626 1.2654,-0.27304 2.9535,-0.55593 3.8868,0.05184 1.4177,0.91887 0.6879,2.38449 -0.1746,3.7050403 -1.2275,1.9207885 -2.3283,3.9196085 -3.2954,5.9838085 -1.2832,2.6706 -0.5756,5.2612 0.3938,7.9102 1.106,2.7077 1.9018,5.532 2.372,8.4188 0.4364,3.5567 -1.6238,6.7419 -4.28,7.7803 -2.2618,0.8827 -3.8291,-0.0971 -3.7333,-2.5788 z"
     fill="#e5b65c"
     stroke="#000000"
     stroke-width="4"/>
  <path
     d="m 85.930387,23.483573 c -0.6419,-2.4048 -1.1453,-4.7453 -1.8948,-7.0037 -1.5155,-4.56616 -0.2245,-8.5980888 2.1659,-12.4376688 1.0147,-1.630997 2.5322,-2.656846 4.4165,-1.699249 1.9828,1.008139 1.3015,2.778959 0.5907,4.289189 -0.7594,1.51355 -1.1309,3.1920593 -1.0811,4.8847188 0.0499,1.69261 0.5195,3.34641 1.3666,4.81271 2.6365,5.0446 2.775,10.1633 -1.2168,14.6192 -1.293,1.4439 -3.2961,2.4377 -5.1634,3.1202 -1.4774,0.5402 -2.5709,-0.2625 -1.9316,-2.1731 0.9293,-2.7704 1.8167,-5.554 2.748,-8.4123 z"
     fill="#e5b65c"
     stroke="#000000"
     stroke-width="4"/>
  <path
     d="m 58.301887,4.8691442 c -0.2805,0.92414 -0.6071,1.83364 -0.9786,2.7251 -1.7649,3.6518588 -1.354,7.1324288 0.5677,10.6077288 1.8719,3.3854 3.243,7.0386 2.647,10.9228 -0.412,2.2015 -1.3226,4.2794 -2.6621,6.0744 -0.5775,0.8021 -2.649,1.1538 -3.703,0.7718 -0.7338,-0.2625 -1.4361,-2.2492 -1.2116,-3.2554 1.1262,-5.042 0.1601,-9.5707 -2.013,-14.2044 -2.4416,-5.2068 -1.2549,-10.2678285 2.4593,-14.5740588 0.6773,-0.78761 2.2243,-1.108495 3.3585,-1.086179 0.5382,0.010501 1.0501,1.338899 1.5358,2.018209 z"
     fill="#e5b65c"
     stroke="#000000"
     stroke-width="4"/>
</svg>
