<svg
   width="120.457"
   height="158.207"
   viewBox="0 0 120.457 158.207"
   xmlns="http://www.w3.org/2000/svg">
  <g
     transform="translate(-4.89497,-7.28784)">
    <path
       d="m 62.089844,116.51955 c -0.6742,1.088 -1.4333,2.123 -2.27,3.092 -12.5021,12.323 -25.0332,24.616 -37.5934,36.879 -2.1257,2.115 -4.4515,4.021 -6.94457,5.69 -4.22828,2.755 -7.56533,1.092 -8.26928,-3.929 -0.12085,-1.326 -0.1486,-2.659 -0.08315,-3.99 0.0468,-31.296 0.01303,-62.5923 0.19503,-93.8878 0.07085,-12.3105 0.55576,-24.621 1.00816,-36.9257 0.20428,-2.6521 0.65681,-5.27921 1.3519,-7.84718 0.7371,-3.20636 1.62497,-4.06773 5.00499,-4.33882 6.86982,-0.55126 13.75332,-1.18486 20.63752,-1.2776 25.1355,-0.33659 50.2742,-0.44423 75.4115,-0.69651 3.329,0.03364 6.621,0.69745 9.702,1.95606 0.746,0.24925 1.406,0.70584 1.901,1.31623 0.495,0.61039 0.805,1.34919 0.894,2.12943 0.238,1.53208 0.342,3.0817 0.311,4.63179 -1.66,43.1522 -2.475,86.3107 -1.263,129.4921 -0.018,3.408 -0.305,6.81 -0.859,10.172 -0.333,2.52 -2.73,4.004 -5.494,3.632 -2.786,-0.387 -5.332,-1.783 -7.154,-3.92 -13.8614,-15.464 -30.7972,-27.527 -46.4867,-42.178 z"
       fill="#C65D4E"
       stroke="#000000"
       stroke-width="4"/>
  </g>
</svg>
