<svg
   width="173.70847"
   height="163.37939"
   viewBox="0 0 173.70846 163.37949"
   xmlns="http://www.w3.org/2000/svg">
  <g
     transform="matrix(0.6962786,0,0,0.75300753,66.792561,4.4666815)">
    <path
       d="m 126.94934,6.8240516 c 8.47145,-1.5317592 13.84327,1.5110163 13.94918,6.0668074 0.16762,7.210225 0.71165,25.357776 0.66589,31.711205 -0.177,24.57493 0.0114,41.326567 0.0624,61.967766 0.52843,13.66151 0.58034,27.33954 0.61431,41.01002 0.0341,26.50456 -1.84005,29.17639 -12.5079,29.42627 -40.04381,-3.43674 -46.934699,25.92507 -100.517639,31.2471 v 0.48763 c 57.104953,-5.08797 66.878395,-27.5123 109.137689,-24.0494 11.19516,-0.25037 13.16352,-2.92637 13.12782,-29.48333 -0.0357,-13.69751 -0.0934,-27.40451 -0.64797,-41.09303 -0.18,-8.0838 -0.37878,-16.167007 -0.53578,-24.251707 0.82347,-22.747422 -0.53189,-45.430979 -1.28192,-68.154517 C 148.85913,6.5139214 151.3123,1.4629383 126.94934,6.8240516 Z"
       fill="#4a6fa5"
       stroke="#000000"
       stroke-width="4"/>
    <path
       d="M 28.443583,40.769647 C 56.46602,33.434092 54.915781,26.201292 71.074631,15.528436 99.924918,-3.5270634 125.16344,-8.1096954 125.34901,-0.07340744 c 0.10427,4.51568904 0.86828,60.27691944 1.07985,71.21552144 0.1496,8.068746 0.33827,16.136894 0.50979,24.204742 0.52843,13.661504 0.58256,27.340424 0.61653,41.010904 0.0341,26.50456 -1.84064,29.1757 -12.50849,29.42558 -40.268813,-3.45606 -31.353403,37.61643 -85.768653,42.69435"
       fill="#4a6fa5"
       stroke="#000000"
       stroke-width="4"/>
    <path
       d="m -91.46137,18.676611 c -2.419233,14.570948 -1.360273,32.049598 -1.416273,35.599698 -0.184,11.9016 0.37338,23.8016 0.13238,35.7004 -0.157,8.0847 -0.355,16.168801 -0.535,24.252601 -0.55455,13.68852 -0.61135,27.39449 -0.647,41.092 -0.0357,26.55696 1.93162,29.23339 13.126782,29.48376 42.259292,-3.4629 52.627722,18.96057 109.732679,24.04854 0.31923,-25.87234 -1.459919,-65.59085 -1.177849,-91.48893 0.23847,-20.550305 0.008,-45.12991 0.47174,-78.049626 C -28.606496,37.374928 -84.38048,-13.710927 -91.46137,18.676611 Z"
       fill="#4a6fa5"
       stroke="#000000"
       stroke-width="4"/>
  </g>
</svg>
