<svg
   width="137.21318"
   height="172.93629"
   viewBox="0 0 137.21318 172.93629"
   xmlns="http://www.w3.org/2000/svg">
  <g
     transform="translate(1.7209669,4.7228203)">
    <path
       d="m 90.956768,-2.7202402 c -1.286997,-0.025041 -2.926541,0.1686898 -4.853516,0.2148437 -6.1944,0.146424 -12.401644,-0.091857 -18.589844,0.1542969 -8.2415,0.3310786 -16.082547,-0.6626131 -24.310547,-0.064453 -4.0988,0.29846 -3.5342,2.68414198 -3.316406,6.59375 -0.136756,5.4636528 1.156504,9.5901686 -1.3125,9.6054686 -6.040173,0.03743 -15.613534,0.660313 -18.021484,0.820313 -9.4259,0.62277 -15.5649816,4.286387 -18.0507816,13.117187 -1.65142993,5.8695 -1.371314,12.874716 -1.54687497,18.916016 -0.52917701,18.2147 -0.38210613,36.447332 -0.48632813,54.673828 -0.078167,13.72491 -0.18945312,27.45278 -0.18945312,41.17578 -6.2001e-4,12.195 6.70848872,20.37131 18.66796882,22.82031 2.4162,0.554 4.883681,0.85925 7.363281,0.90625 24.6721,-0.159 49.340066,-0.58084 74.009767,-0.58984 17.762,-0.006 29.54698,-15.02719 30.70898,-27.11719 0.587,-6.109 1.0893,-12.23714 1.2793,-18.36914 0.519,-16.78651 1.11469,-33.577739 1.17969,-50.369139 0.048,-12.269799 -0.31427,-24.569741 -1.19727,-36.806641 -0.903,-12.533 -7.001,-19.360472 -19.625,-19.570312 -2.2615,-0.03692 -17.460179,0.581124 -17.720701,-1.089844 C 94.314778,8.2587246 94.635706,7.0700957 94.126689,0.92038475 94.264651,-2.0297545 93.101761,-2.6785058 90.956768,-2.7202402 Z M 101.75169,109.53171 c 2.17756,0.44667 5.09714,1.57882 5.4668,4.12891 0.73387,5.05598 0.99366,10.14159 0.14843,15.21289 -0.70601,4.23501 -2.72737,6.37231 -6.59375,6.60547 -4.945323,0.2982 -9.899127,0.35594 -14.851559,0.42773 -13.608329,0.19637 -27.218816,0.39224 -40.828125,0.48242 -3.515681,0.0234 -7.033472,-0.32134 -10.548828,-0.54101 -0.833558,-0.0674 -1.660588,-0.21342 -2.472656,-0.43555 -3.050137,-0.77435 -4.356649,-2.30773 -4.382813,-5.8457 -0.03582,-4.88847 0.185529,-9.78145 0.324219,-14.66992 0.04586,-1.607 3.112314,-3.11575 4.447266,-3.68946 z"
       fill="#ff3c2f"
       stroke="#000000"
       stroke-width="4"/>
    <g
       transform="matrix(0.12482869,-0.006542,0.006542,0.12482869,100.4592,64.362171)"/>
  </g>
</svg>
