<svg
   viewBox="0 0 160.22905 144.7538"
   width="160.22905"
   height="144.7538"
   xmlns="http://www.w3.org/2000/svg">
  <path
     d="m 76.807177,2 c -15.3841,0.3372308 -31.95611,4.8095271 -46.66211,12.591797 -14.465,7.6562 -22.8012968,19.709131 -27.0292968,39.082031 -4.567,20.9238 4.878105,40.951507 25.9121098,54.945312 13.733,9.136 29.90252,13.47892 50.886718,13.66992 0.116603,10e-4 0.235616,0.006 0.353516,0.0117 0.3726,0.031 0.746534,0.016 1.115234,-0.043 8.833001,-1.7 16.026435,2.16772 23.648442,6.26172 l 0.0586,0.0312 c 6.334,3.404 12.83976,6.74179 19.13086,9.96679 2.204,1.128 4.40567,2.25954 6.60547,3.39454 l 0.25977,0.13671 c 0.6177,0.394 1.32078,0.63608 2.05078,0.70508 0.0861,0 0.17241,-0.006 0.25781,-0.0176 0.5276,-0.069 1.08814,-0.11315 1.68164,-0.16015 2.0071,-0.158 4.08324,-0.32258 5.30664,-1.51758 1.4951,-1.46 1.44511,-5.09698 0.75391,-6.95898 -2.5941,-6.991 -5.66753,-13.82671 -8.33203,-19.59571 -1.2735,-2.756 -0.95403,-3.96681 1.48437,-5.63281 13.242,-9.046996 20.90987,-22.93724 23.43946,-42.46484 0.77042,-6.4216 0.64986,-12.919694 -0.35743,-19.308594 C 155.03487,31.392058 145.01799,19.854106 126.74859,11.822266 111.67789,5.1952855 95.813555,2.074726 76.824755,2 Z M 50.924364,55.828125 c 1.794,0.0777 3.496297,0.81516 4.779297,2.06836 1.283,1.2531 2.056475,2.935256 2.171875,4.722656 0.0335,0.877 -0.111081,1.750712 -0.425781,2.570312 -0.3148,0.8193 -0.79395,1.566966 -1.40625,2.197266 -0.7128,0.731 -1.562807,1.313891 -2.503907,1.712891 -0.941099,0.3983 -1.954162,0.604219 -2.976562,0.607422 h -0.08984 c -1.9292,0.0481 -3.798821,-0.667988 -5.199218,-1.992188 -0.579102,-0.5731 -1.03841,-1.254059 -1.34961,-2.005859 -0.3113,-0.7519 -0.468293,-1.557694 -0.46289,-2.371094 0.02,-1.0009 0.238778,-1.98975 0.642578,-2.90625 0.4038,-0.9165 0.985337,-1.743947 1.710937,-2.435547 0.6657,-0.6805 1.458838,-1.22175 2.335938,-1.59375 0.8772,-0.372 1.820337,-0.568219 2.773437,-0.574219 z m 30.28711,1.123047 h 0.02148 c 1.6664,0.1313 3.216025,0.899831 4.328125,2.144531 1.6403,1.6406 2.651719,3.791928 2.636719,5.611329 -0.0358,1.8221 -0.791563,3.557824 -2.101563,4.828124 -1.2456,1.251402 -2.936978,1.96031 -4.705078,1.97461 h -0.06445 c -0.9095,-0.0084 -1.806778,-0.197388 -2.642578,-0.554688 -0.8351,-0.3574 -1.59201,-0.876343 -2.22461,-1.527343 -0.6547,-0.6661 -1.168372,-1.455466 -1.513672,-2.322266 -0.3459,-0.8662 -0.514946,-1.792109 -0.498046,-2.724609 0.0489,-3.7297 3.39887,-7.410188 6.763673,-7.429688 z m 27.974616,0.09766 c 2.39,0.1995 4.61479,1.301632 6.21679,3.082032 1.192,1.142 1.88369,2.705815 1.92969,4.353515 -0.144,1.6671 -0.89342,3.223607 -2.10742,4.378907 -1.214,1.1547 -2.80838,1.828178 -4.48438,1.892578 h -0.043 c -1.858,-0.0585 -3.61849,-0.846307 -4.89649,-2.191407 -1.279,-1.3456 -1.97264,-3.14034 -1.93164,-4.99414 -0.022,-0.9588 0.148,-1.912288 0.5,-2.804688 0.352,-0.8925 0.88078,-1.705178 1.55078,-2.392578 0.426,-0.4302 0.9341,-0.770447 1.4961,-0.998047 0.561,-0.2277 1.16253,-0.338072 1.76953,-0.326172 z"
     fill="#5fa8a0"
     stroke="#000000"
     stroke-width="4"/>
</svg>
