<?xml version="1.0" encoding="UTF-8" standalone="no"?>
<svg
   width="96"
   height="96"
   viewBox="0 0 24 24"
   version="1.1"
   id="svg1"
   sodipodi:docname="custom_battery_high.svg"
   inkscape:version="1.4.3 (0d15f75, 2025-12-25)"
   xmlns:inkscape="http://www.inkscape.org/namespaces/inkscape"
   xmlns:sodipodi="http://sodipodi.sourceforge.net/DTD/sodipodi-0.dtd"
   xmlns="http://www.w3.org/2000/svg"
   xmlns:svg="http://www.w3.org/2000/svg">
  <defs
     id="defs1" />
  <sodipodi:namedview
     id="namedview1"
     pagecolor="#ffffff"
     bordercolor="#000000"
     borderopacity="0.25"
     inkscape:showpageshadow="2"
     inkscape:pageopacity="0.0"
     inkscape:pagecheckerboard="0"
     inkscape:deskcolor="#d1d1d1"
     inkscape:zoom="7.2273624"
     inkscape:cx="37.565572"
     inkscape:cy="34.452403"
     inkscape:window-width="1800"
     inkscape:window-height="1101"
     inkscape:window-x="0"
     inkscape:window-y="40"
     inkscape:window-maximized="0"
     inkscape:current-layer="svg1" />
  <path
     fill="#ff9500"
     fill-rule="evenodd"
     d="M 2,12 C 2,8.229 2,6.343 3.172,5.172 4.344,4.001 6.229,4 10,4 h 1.5 c 3.771,0 5.657,0 6.828,1.172 0.944,0.943 1.127,2.348 1.163,4.828 H 20 c 0.943,0 1.414,0 1.707,0.293 C 22,10.586 22,11.057 22,12 c 0,0.943 0,1.414 -0.293,1.707 C 21.414,14 20.943,14 20,14 h -0.509 c -0.036,2.48 -0.22,3.885 -1.163,4.828 C 17.157,20 15.271,20 11.5,20 H 10 C 6.229,20 4.343,20 3.172,18.828 2.001,17.656 2,15.771 2,12 M 6.636,8.344 c 0.3622837,-0.2011632 0.8190507,-0.070402 1.02,0.292 0,0 0.088,0.185 0.118,0.259 0.06,0.147 0.132,0.356 0.202,0.631 0.142,0.551 0.274,1.364 0.274,2.474 0,1.11 -0.132,1.923 -0.274,2.474 -0.046773,0.183752 -0.32,0.89 -0.32,0.89 -0.4793331,0.878 -1.7963331,0.159 -1.317,-0.719 l 0.005,-0.01 0.038,-0.087 C 6.4380355,14.401906 6.4854503,14.252649 6.524,14.101 6.632,13.677 6.75,12.99 6.75,12 6.75,11.01 6.632,10.323 6.524,9.899 6.4766285,9.7169897 6.4164793,9.538547 6.344,9.365 L 6.339,9.355 C 6.1453861,8.9937372 6.2776495,8.5439525 6.636,8.345 m 4.52,0.292 C 10.676667,7.7590004 9.3596669,8.4780004 9.839,9.356 l 0.005,0.01 0.038,0.087 c 0.035,0.087 0.087,0.235 0.142,0.447 0.108,0.424 0.226,1.111 0.226,2.101 0,0.99 -0.118,1.677 -0.226,2.101 -0.047371,0.18201 -0.1075207,0.360453 -0.18,0.534 l -0.005,0.01 c -0.4799998,0.878 0.837,1.598 1.317,0.72 0,0 0.25,-0.617 0.321,-0.892 C 11.617,13.923 11.75,13.11 11.75,12 11.75,10.89 11.618,10.077 11.476,9.526 11.422692,9.311432 11.35521,9.100636 11.274,8.895 11.24318,8.8176169 11.20915,8.741551 11.172,8.667 L 11.162,8.649 11.159,8.642 Z"
     clip-rule="evenodd"
     stroke-width="0.75"
     stroke="#000000" />
</svg>
