<?xml version="1.0" encoding="UTF-8" standalone="no"?>
<svg
   width="96"
   height="96"
   viewBox="0 0 24 24"
   version="1.1"
   id="svg1"
   sodipodi:docname="custom_battery_low.svg"
   inkscape:version="1.4.3 (0d15f75, 2025-12-25)"
   xmlns:inkscape="http://www.inkscape.org/namespaces/inkscape"
   xmlns:sodipodi="http://sodipodi.sourceforge.net/DTD/sodipodi-0.dtd"
   xmlns="http://www.w3.org/2000/svg"
   xmlns:svg="http://www.w3.org/2000/svg">
  <defs
     id="defs1" />
  <sodipodi:namedview
     id="namedview1"
     pagecolor="#ffffff"
     bordercolor="#000000"
     borderopacity="0.25"
     inkscape:showpageshadow="2"
     inkscape:pageopacity="0.0"
     inkscape:pagecheckerboard="0"
     inkscape:deskcolor="#d1d1d1"
     inkscape:zoom="7.3847143"
     inkscape:cx="31.077709"
     inkscape:cy="35.207862"
     inkscape:window-width="1800"
     inkscape:window-height="1101"
     inkscape:window-x="0"
     inkscape:window-y="40"
     inkscape:window-maximized="0"
     inkscape:current-layer="svg1" />
  <path
     fill="#ff3b30"
     fill-rule="evenodd"
     d="M 3.172,5.172 C 2,6.343 2,8.229 2,12 2,15.771 2,17.657 3.172,18.828 4.344,19.999 6.229,20 10,20 h 1.5 c 3.771,0 5.657,0 6.828,-1.172 C 19.272,17.885 19.455,16.48 19.491,14 H 20 c 0.943,0 1.414,0 1.707,-0.293 C 22,13.414 22,12.943 22,12 22,11.057 22,10.586 21.707,10.293 21.414,10 20.943,10 20,10 H 19.491 C 19.455,7.52 19.271,6.115 18.328,5.172 17.157,4 15.271,4 11.5,4 H 10 C 6.229,4 4.343,4 3.172,5.172 M 6.636,8.344 C 6.9982837,8.1428368 7.4550507,8.2735976 7.656,8.636 L 7.7525893,8.6701727 7.656,8.637 7.657,8.638 7.659,8.642 7.663,8.649 7.673,8.667 C 7.792782,8.9111709 7.8915457,9.1942152 7.976,9.526 8.118,10.077 8.25,10.89 8.25,12 c 0,1.11 -0.132,1.923 -0.274,2.474 -0.07,0.275 -0.143,0.484 -0.202,0.631 -0.03082,0.07738 -0.06485,0.153449 -0.102,0.228 l -0.01,0.018 -0.003,0.007 -0.002,0.003 v 0.002 L 7.656,15.364 C 7.1766669,16.242 5.8596669,15.523 6.339,14.645 l 0.005,-0.01 0.038,-0.087 C 6.4380355,14.401906 6.4854503,14.252649 6.524,14.101 6.632,13.677 6.75,12.99 6.75,12 6.75,11.01 6.632,10.323 6.524,9.899 6.4766285,9.7169897 6.4164793,9.538547 6.344,9.365 L 6.339,9.355 C 6.1453861,8.9937372 6.302087,8.5276608 6.6604375,8.3287083"
     clip-rule="evenodd"
     stroke-width="0.75"
     stroke="#000000"
     id="path1"
     sodipodi:nodetypes="cssssccsssssccssccccccccccsccccccccccccscccc" />
</svg>
